# xmcd
#
# Track frame offsets: 
#        150
#        13527
#        28442
#        43202
#        57995
#        71667
#        84247
#        96757
#        112197
#        124022
#        139432
#        150947
#        170320
#        208370
#
# Disc length: 3281 seconds
#
# Revision: 3
# Processed by: cddbd v1.5.2PL0 Copyright (c) Steve Scherf et al.
# Submitted via: ExactAudioCopy v0.99pb5
#
DISCID=c80ccf0e
DTITLE=McFly - Room On The 3rd Floor
DYEAR=2004
DGENRE=Rock
TTITLE0=5 Colours In Her Hair
TTITLE1=Obviously
TTITLE2=Room On The 3rd Floor
TTITLE3=That Girl
TTITLE4=Hypnotised
TTITLE5=Saturday Night
TTITLE6=Met This Girl
TTITLE7=She Left Me
TTITLE8=Down By The Lake
TTITLE9=Unsaid Things
TTITLE10=Surfer Babe
TTITLE11=Not Alone
TTITLE12=Broccoli~Get Over You (Seacret Track)
TTITLE13=Data
EXTD=YEAR: 2004
EXTT0=
EXTT1=
EXTT2=
EXTT3=
EXTT4=
EXTT5=
EXTT6=
EXTT7=
EXTT8=
EXTT9=
EXTT10=
EXTT11=
EXTT12=
EXTT13=
PLAYORDER=
